<svg width="292" height="34" viewBox="0 0 292 34" fill="none" xmlns="http://www.w3.org/2000/svg">
<rect width="49.5833" height="34" rx="4.25" fill="white"/>
<rect x="0.5" y="0.5" width="48.5833" height="33" rx="3.75" stroke="#CCD2E3" stroke-opacity="0.31"/>
<path fill-rule="evenodd" clip-rule="evenodd" d="M21.3124 26.1347L21.6343 24.0818L20.9172 24.065H17.4932L19.8728 8.91567C19.8802 8.86979 19.9042 8.82721 19.9392 8.79691C19.9743 8.76662 20.0192 8.75 20.066 8.75H25.8396C27.7564 8.75 29.0792 9.1504 29.7697 9.94082C30.0934 10.3116 30.2996 10.6992 30.3995 11.1256C30.5041 11.5731 30.5059 12.1076 30.4038 12.7597L30.3964 12.8072V13.225L30.7202 13.4092C30.9927 13.5545 31.2095 13.7207 31.3757 13.9109C31.6526 14.228 31.8317 14.631 31.9074 15.1086C31.9857 15.5999 31.9598 16.1847 31.8317 16.8467C31.6839 17.608 31.4451 18.2712 31.1226 18.8137C30.826 19.3136 30.4481 19.7284 29.9993 20.0497C29.5709 20.3551 29.0619 20.5869 28.4864 20.7352C27.9287 20.881 27.2928 20.9545 26.5954 20.9545H26.1461C25.8249 20.9545 25.5128 21.0707 25.2678 21.2789C25.0222 21.4915 24.8597 21.782 24.8099 22.0997L24.776 22.2845L24.2072 25.903L24.1815 26.0358C24.1746 26.0779 24.1629 26.0988 24.1456 26.113C24.1303 26.126 24.1082 26.1347 24.0867 26.1347H21.3124Z" fill="#28356A"/>
<path fill-rule="evenodd" clip-rule="evenodd" d="M31.0268 12.8555C31.0097 12.9661 30.9899 13.0791 30.9678 13.1953C30.2065 17.1204 27.6015 18.4763 24.2747 18.4763H22.5807C22.1739 18.4763 21.8309 18.7729 21.7677 19.1759L20.6547 26.2638C20.6135 26.5285 20.8166 26.7669 21.0825 26.7669H24.0869C24.4426 26.7669 24.7448 26.5074 24.8009 26.1551L24.8304 26.0019L25.396 22.3976L25.4324 22.1999C25.4878 21.8464 25.7907 21.5867 26.1464 21.5867H26.5957C29.5065 21.5867 31.7852 20.4003 32.4512 16.9665C32.7293 15.5321 32.5854 14.3343 31.8492 13.492C31.6264 13.238 31.3501 13.0272 31.0268 12.8555Z" fill="#298FC2"/>
<path fill-rule="evenodd" clip-rule="evenodd" d="M30.2303 12.5371C30.114 12.503 29.994 12.4722 29.8709 12.4443C29.7471 12.4171 29.6204 12.393 29.4898 12.3719C29.0331 12.2978 28.5326 12.2627 27.9966 12.2627H23.4713C23.3598 12.2627 23.2539 12.288 23.1593 12.3337C22.9505 12.4344 22.7955 12.6328 22.7579 12.8757L21.7952 18.9979L21.7676 19.1763C21.8309 18.7733 22.1738 18.4768 22.5807 18.4768H24.2746C27.6014 18.4768 30.2064 17.1201 30.9677 13.1958C30.9905 13.0796 31.0096 12.9666 31.0267 12.8559C30.8341 12.7533 30.6255 12.6655 30.4009 12.5907C30.3453 12.5722 30.2881 12.5544 30.2303 12.5371Z" fill="#22284F"/>
<path fill-rule="evenodd" clip-rule="evenodd" d="M22.7579 12.8753C22.7955 12.6324 22.9505 12.434 23.1593 12.334C23.2546 12.2881 23.3598 12.2628 23.4714 12.2628H27.9966C28.5326 12.2628 29.0332 12.2981 29.4899 12.3722C29.6204 12.3932 29.7471 12.4174 29.8709 12.4446C29.994 12.4723 30.114 12.5033 30.2304 12.5372C30.2881 12.5545 30.3454 12.5725 30.4014 12.5903C30.6261 12.6651 30.8348 12.7536 31.0274 12.8555C31.254 11.405 31.0255 10.4175 30.2445 9.52318C29.3833 8.53854 27.8292 8.11719 25.8405 8.11719H20.0668C19.6606 8.11719 19.314 8.41372 19.2513 8.81741L16.8465 24.1225C16.7991 24.4253 17.0317 24.6984 17.3358 24.6984H20.9002L22.7579 12.8753Z" fill="#28356A"/>
<rect x="60.5835" width="49" height="33.6" rx="4.2" fill="white"/>
<rect x="61.0835" y="0.5" width="48" height="32.6" rx="3.7" stroke="#CCD2E3" stroke-opacity="0.31"/>
<path fill-rule="evenodd" clip-rule="evenodd" d="M75.4587 22.7619H72.4902L70.2642 14.2697C70.1586 13.8791 69.9342 13.5337 69.6043 13.371C68.7807 12.9619 67.8733 12.6364 66.8833 12.4722V12.1452H71.6652C72.3252 12.1452 72.8202 12.6364 72.9027 13.2068L74.0577 19.3325L77.0247 12.1452H79.9106L75.4587 22.7619ZM81.5606 22.7619H78.7572L81.0656 12.1452H83.8691L81.5606 22.7619ZM87.4959 15.0864C87.5784 14.5146 88.0734 14.1876 88.6509 14.1876C89.5584 14.1055 90.5469 14.2697 91.3719 14.6773L91.8668 12.3915C91.0419 12.0646 90.1344 11.9004 89.3109 11.9004C86.5899 11.9004 84.61 13.371 84.61 15.4119C84.61 16.9646 86.0124 17.7798 87.0024 18.271C88.0734 18.7607 88.4859 19.0876 88.4034 19.5774C88.4034 20.3119 87.5784 20.6389 86.7549 20.6389C85.7649 20.6389 84.775 20.394 83.869 19.985L83.374 22.2722C84.3639 22.6799 85.435 22.844 86.4249 22.844C89.4759 22.9247 91.3719 21.4556 91.3719 19.2504C91.3719 16.4735 87.4959 16.3107 87.4959 15.0864ZM101.183 22.7619L98.9574 12.1452H96.5664C96.0714 12.1452 95.5764 12.4722 95.4114 12.9619L91.2895 22.7619H94.1754L94.7515 21.2107H98.2974L98.6274 22.7619H101.183ZM96.9789 15.0043L97.8024 19.0056H95.4939L96.9789 15.0043Z" fill="#172B85"/>
<rect x="120.583" width="49.5833" height="34" rx="4.25" fill="white"/>
<rect x="121.083" y="0.5" width="48.5833" height="33" rx="3.75" stroke="#CCD2E3" stroke-opacity="0.31"/>
<path fill-rule="evenodd" clip-rule="evenodd" d="M145.655 24.6227C143.967 26.0794 141.777 26.9588 139.384 26.9588C134.045 26.9588 129.717 22.5805 129.717 17.1796C129.717 11.7787 134.045 7.40039 139.384 7.40039C141.777 7.40039 143.967 8.27979 145.655 9.73653C147.343 8.27979 149.533 7.40039 151.925 7.40039C157.264 7.40039 161.592 11.7787 161.592 17.1796C161.592 22.5805 157.264 26.9589 151.925 26.9589C149.533 26.9589 147.343 26.0794 145.655 24.6227Z" fill="#ED0006"/>
<path fill-rule="evenodd" clip-rule="evenodd" d="M145.655 24.6227C147.733 22.829 149.051 20.16 149.051 17.1796C149.051 14.1992 147.733 11.5303 145.655 9.73657C147.343 8.27981 149.533 7.40039 151.925 7.40039C157.264 7.40039 161.592 11.7787 161.592 17.1796C161.592 22.5805 157.264 26.9589 151.925 26.9589C149.533 26.9589 147.343 26.0794 145.655 24.6227Z" fill="#F9A000"/>
<path fill-rule="evenodd" clip-rule="evenodd" d="M145.655 24.6224C147.733 22.8287 149.051 20.1598 149.051 17.1794C149.051 14.199 147.733 11.53 145.655 9.73633C143.576 11.53 142.258 14.199 142.258 17.1794C142.258 20.1598 143.576 22.8287 145.655 24.6224Z" fill="#FF5E00"/>
<rect x="181.167" width="49.5833" height="34" rx="4.25" fill="white"/>
<rect x="181.667" y="0.5" width="48.5833" height="33" rx="3.75" stroke="#CCD2E3" stroke-opacity="0.31"/>
<path d="M194.454 12.2207H187.714C186.836 12.2207 186.125 12.9383 186.125 13.8227V20.6204C186.125 21.5048 186.836 22.2224 187.714 22.2224H194.454C195.332 22.2224 196.042 21.5048 196.042 20.6204V13.8227C196.043 12.9374 195.332 12.2207 194.454 12.2207Z" fill="#1677FF"/>
<path d="M194.29 18.5008C193.894 18.3669 193.361 18.1617 192.768 17.9453C193.124 17.3204 193.409 16.6094 193.596 15.8365H191.641V15.1263H194.036V14.7301H191.641V13.5459H190.664C190.493 13.5459 190.493 13.7164 190.493 13.7164V14.7291H188.071V15.1254H190.493V15.8355H188.492V16.2318H192.371C192.229 16.7246 192.038 17.1883 191.813 17.609C190.554 17.1902 189.211 16.8511 188.368 17.06C187.828 17.1939 187.481 17.4328 187.276 17.6839C186.34 18.8334 187.011 20.5797 188.99 20.5797C190.16 20.5797 191.287 19.922 192.16 18.8381C193.463 19.4695 196.042 20.5544 196.042 20.5544V19.0086C196.043 19.0086 195.719 18.9824 194.29 18.5008ZM188.805 19.9117C187.262 19.9117 186.806 18.6863 187.569 18.0156C187.823 17.7888 188.288 17.6783 188.535 17.6539C189.452 17.5631 190.3 17.9153 191.302 18.4081C190.598 19.3337 189.702 19.9117 188.805 19.9117Z" fill="white"/>
<path d="M207.66 13.685C207.66 14.2021 208.039 14.5506 208.566 14.5506C209.094 14.5506 209.472 14.2021 209.472 13.685C209.472 13.1772 209.094 12.8193 208.566 12.8193C208.039 12.8193 207.66 13.1772 207.66 13.685Z" fill="#1677FF"/>
<path d="M206.704 13.0381H205.132V20.3023H206.704V13.0381Z" fill="black"/>
<path d="M202.376 13.2871H200.266L197.908 20.3031H199.361L199.759 18.9297H202.257L202.635 20.3031H204.496L202.376 13.2871ZM200.087 17.7849L201.022 14.5509H201.062L201.947 17.7849H200.087Z" fill="black"/>
<path d="M209.352 14.9688H207.78V20.3031H209.352V14.9688Z" fill="black"/>
<path d="M225.782 14.9791L225.792 14.9688H224.31L223.374 18.213H223.324L222.25 14.9688H220.488L222.607 20.3228L221.722 21.9548V21.9941H223.105L225.782 14.9791Z" fill="black"/>
<path d="M213.263 14.8584C212.686 14.8584 212.238 15.0776 211.731 15.4954V14.968H210.159V21.9934H211.731V20.2518C212.03 20.3314 212.308 20.3717 212.646 20.3717C214.049 20.3717 215.313 19.3365 215.313 17.4956C215.313 15.844 214.398 14.8584 213.263 14.8584ZM212.268 19.3861C212.089 19.3861 211.919 19.3665 211.73 19.3065V16.421C212.059 16.1925 212.327 16.0828 212.665 16.0828C213.252 16.0828 213.72 16.5503 213.72 17.5462C213.721 18.8194 213.034 19.3861 212.268 19.3861Z" fill="black"/>
<path d="M220.179 18.9683V16.7396C220.179 15.5254 219.462 14.8584 218.198 14.8584C217.392 14.8584 216.835 14.998 215.82 15.3062L216.098 16.5307C217.024 16.1128 217.431 15.9339 217.859 15.9339C218.376 15.9339 218.606 16.3021 218.606 16.8698V16.9091C216.804 17.2473 216.247 17.4366 215.899 17.7851C215.641 18.0436 215.531 18.4118 215.531 18.84C215.531 19.8649 216.328 20.412 217.073 20.412C217.631 20.412 218.079 20.2031 218.686 19.7449L218.795 20.3024H220.367L220.179 18.9683ZM218.607 19.0086C218.189 19.2372 217.95 19.3271 217.672 19.3271C217.293 19.3271 217.055 19.0779 217.055 18.6807C217.055 18.5317 217.085 18.3818 217.204 18.2629C217.393 18.0736 217.761 17.934 218.607 17.7354V19.0086Z" fill="black"/>
<rect x="241.75" width="49.5833" height="34" rx="4.25" fill="#1F72CD"/>
<rect x="242.25" y="0.5" width="48.5833" height="33" rx="3.75" stroke="#CCD2E3" stroke-opacity="0.31"/>
<path fill-rule="evenodd" clip-rule="evenodd" d="M250.639 12.042L246 22.3082H251.554L252.242 20.6713H253.816L254.504 22.3082H260.617V21.0589L261.162 22.3082H264.324L264.869 21.0325V22.3082H277.582L279.128 20.7139L280.576 22.3082L287.106 22.3214L282.452 17.2038L287.106 12.042H280.677L279.172 13.6069L277.77 12.042H263.94L262.752 14.6918L261.537 12.042H255.995V13.2488L255.378 12.042H250.639ZM251.714 13.4998H254.421L257.498 20.4614V13.4998H260.464L262.84 18.4912L265.031 13.4998H267.981V20.8665H266.186L266.171 15.094L263.554 20.8665H261.948L259.315 15.094V20.8665H255.622L254.921 19.215H251.138L250.439 20.8651H248.46L251.714 13.4998ZM276.925 13.4998H269.624V20.8622H276.812L279.128 18.4222L281.361 20.8622H283.696L280.303 17.2023L283.696 13.4998H281.463L279.158 15.9118L276.925 13.4998ZM253.031 14.7462L251.784 17.6883H254.276L253.031 14.7462ZM271.427 16.3699V15.0251V15.0238H275.982L277.97 17.1744L275.894 19.3369H271.427V17.8687H275.41V16.3699H271.427Z" fill="white"/>
</svg>
